<svg xmlns="http://www.w3.org/2000/svg" viewBox="0 0 32 32" fill="none">
  <rect width="32" height="32" rx="8" fill="#059669"/>
  <path d="M16 6C10.477 6 6 10.477 6 16C6 21.523 10.477 26 16 26C21.523 26 26 21.523 26 16C26 10.477 21.523 6 16 6Z" fill="white" fill-opacity="0.15"/>
  <path d="M8 14.5C8 11.462 10.462 9 13.5 9H18.5C21.538 9 24 11.462 24 14.5C24 16.914 22.484 18.973 20.35 19.72L21.5 23H10.5L11.65 19.72C9.516 18.973 8 16.914 8 14.5Z" fill="white"/>
  <rect x="13" y="22" width="6" height="2" rx="1" fill="white"/>
  <circle cx="13" cy="14" r="1.5" fill="#059669"/>
  <circle cx="19" cy="14" r="1.5" fill="#059669"/>
  <path d="M13 17.5C13 17.5 14 18.5 16 18.5C18 18.5 19 17.5 19 17.5" stroke="#059669" stroke-width="1.5" stroke-linecap="round"/>
</svg>